<svg xmlns="http://www.w3.org/2000/svg" width="38" height="38" fill="none"><path fill="#1A9AA5" d="M17.224 0c4.402 0 7.996 3.56 8.197 8.03l.01.397v1.772c0 .787-.622 1.425-1.389 1.425-.702 0-1.283-.536-1.375-1.231l-.012-.194V8.427c0-2.97-2.261-5.398-5.112-5.568l-.319-.009h-9.02c-2.89 0-5.254 2.322-5.42 5.249l-.009.328v21.147c0 2.969 2.261 5.397 5.11 5.567l.32.009h9.038c2.881 0 5.238-2.313 5.403-5.23l.009-.326v-1.791c0-.787.621-1.425 1.387-1.425.703 0 1.284.536 1.375 1.231l.013.194v1.791c0 4.506-3.454 8.184-7.79 8.396l-.397.01H8.204c-4.4 0-7.993-3.56-8.195-8.03L0 29.574V8.427C0 3.907 3.467.216 7.818.009L8.204 0zm14.793 12.314.156.137 5.418 5.539q.072.074.13.154l-.13-.154a1.4 1.4 0 0 1 .239.326l.014.028q.036.069.063.142l.022.064q.02.06.034.123.008.034.013.067A1.2 1.2 0 0 1 38 19l-.002.054q-.001.043-.005.087L38 19q0 .134-.023.26l-.014.066q-.014.066-.035.128l-.021.06a1 1 0 0 1-.06.137l-.017.032q-.097.181-.236.324l-.003.002-5.418 5.54a1.36 1.36 0 0 1-1.962-.003 1.454 1.454 0 0 1-.13-1.856l.134-.16 3.033-3.107-18.915.002c-.766 0-1.388-.638-1.388-1.425 0-.722.522-1.318 1.2-1.412l.188-.013 18.918-.002-3.036-3.102a1.454 1.454 0 0 1-.138-1.855l.134-.16a1.36 1.36 0 0 1 1.806-.142"/></svg>