<svg xmlns="http://www.w3.org/2000/svg" width="800" height="800" class="icon" viewBox="0 -2 1028 1028"><path d="M91.448 896C41.361 896 .02 855.453.02 804.571V91.43C.02 41.342 40.566 0 91.448 0h671.007c50.087 0 91.428 40.547 91.428 91.429v337.093l-3.18-.795c-13.515-3.975-26.236-5.566-40.546-5.566h-.796l-.795-2.385h-2.385V91.43c0-23.056-20.67-43.727-43.726-43.727H91.448c-23.055 0-43.726 20.67-43.726 43.727V804.57c0 23.056 20.67 43.727 43.726 43.727h352.2l.794.795c8.746 11.926 3.975 20.671.795 27.031-3.18 5.565-4.77 9.54.795 15.106l4.77 4.77z"/><path d="M143.125 174.907c-8.745 0-15.9-11.13-15.9-24.646s7.155-24.646 15.9-24.646h270.311c8.745 0 15.9 11.13 15.9 24.646s-7.155 24.646-15.9 24.646z"/><path d="M413.436 128h-270.31c-7.156 0-13.516 9.54-13.516 22.26s6.36 22.262 13.515 22.262h270.311c7.155 0 13.516-9.54 13.516-22.261S421.386 128 413.436 128m-273.49 174.112c-7.156 0-12.721-10.336-12.721-24.646s5.565-24.646 12.72-24.646h193.988c7.155 0 12.72 10.335 12.72 24.646s-5.565 24.646-12.72 24.646z"/><path d="M333.933 255.205H139.945c-5.565 0-9.54 9.54-9.54 22.26s3.975 22.262 9.54 22.262h193.988c5.565 0 9.54-9.54 9.54-22.261s-4.77-22.261-9.54-22.261M734.629 1024c-27.827 0-58.038-1.59-96.994-4.77-56.447-4.77-108.124-31.006-158.211-79.503l-225.79-221.019c-52.471-50.882-54.856-117.665-7.95-168.547 19.876-20.67 50.882-33.39 84.274-33.39 33.391 0 63.602 12.72 82.683 34.98.795.796 2.385 2.386 5.565 3.976.795.795 2.385 1.59 3.18 2.385V399.106c0-40.547 0-81.889.795-122.435.795-60.423 47.702-106.534 109.715-106.534h.795c59.627 0 104.944 43.726 108.124 103.354.795 13.515.795 27.826 0 42.136v18.286h11.925c41.342 0 73.143 14.31 96.2 44.522.794 1.59 5.564 3.18 11.925 3.18 2.385 0 4.77 0 6.36-.795 7.155-.795 14.31-1.59 20.67-1.59 31.802 0 59.628 12.72 83.479 38.956 3.975 3.975 12.72 7.156 20.67 7.156h3.18c5.566-.795 11.926-1.59 17.492-1.59 59.627 0 107.329 42.136 108.124 96.993 2.385 100.97 3.975 200.348-7.156 298.932-13.515 119.255-77.118 182.857-201.142 198.758-23.056 3.975-49.292 5.565-77.913 5.565M325.983 562.087c-16.696 0-32.597 6.36-44.522 17.49-14.31 14.311-22.261 31.007-22.261 49.293 0 19.08 8.745 38.161 24.646 54.062l30.211 30.21A24385 24385 0 0 0 516.79 911.107c33.391 31.8 71.553 52.472 113.69 60.422 32.596 6.36 65.192 9.54 96.993 9.54 28.621 0 57.243-2.385 85.069-7.95 100.969-18.286 147.08-66.783 156.62-160.596 8.746-89.839 7.951-182.062 6.361-271.106v-14.31c-.795-32.597-23.851-54.858-56.447-54.858-8.746 0-16.696 1.59-25.441 4.77v124.025c0 11.13 0 32.597-22.261 32.597h-.795c-7.155 0-12.72-1.59-15.9-5.565-6.361-6.36-7.156-18.286-7.156-27.827v-4.77c0-36.571.795-73.938 0-111.304-.795-32.596-23.851-55.652-55.652-55.652-7.95 0-15.9 1.59-23.056 3.975v128.795c0 11.13-2.385 19.876-7.95 25.44-3.976 3.976-9.54 6.361-16.696 6.361h-.795c-21.466-.795-21.466-23.056-21.466-31.006V442.832c0-15.105-6.36-31.006-18.286-42.931-11.13-11.13-26.236-17.491-41.341-17.491-6.36 0-13.516.795-19.876 3.18v57.242c0 27.031 0 55.652-1.59 83.479-.795 7.155-7.155 12.72-13.516 18.285-2.385 2.385-5.565 4.77-7.95 7.156l-2.385 2.385-1.59-3.976c-1.59-2.385-3.975-4.77-6.36-6.36-4.77-5.565-10.336-11.13-13.516-17.49-2.385-4.77-1.59-10.336-1.59-15.106v-75.528c0-50.882 0-103.354-.795-155.031 0-38.162-24.646-63.603-60.422-64.398-38.957 0-65.193 27.827-65.193 68.373v374.46l-10.335 6.36-.795-1.59c-7.156-7.95-15.106-15.9-22.261-23.851-16.696-17.49-34.187-36.571-51.677-54.062-15.9-15.106-35.777-23.851-56.447-23.851"/></svg>